<svg width="34" height="34" viewBox="0 0 34 34" fill="none" xmlns="http://www.w3.org/2000/svg">
<path d="M29.768 14.032L19.968 4.23201C19.1668 3.4718 18.1045 3.048 17 3.048C15.8955 3.048 14.8332 3.4718 14.032 4.23201L4.232 14.032C3.44547 14.8195 3.00369 15.887 3.00369 17C3.00369 18.113 3.44547 19.1805 4.232 19.968L14.032 29.768C14.8195 30.5545 15.887 30.9963 17 30.9963C18.113 30.9963 19.1805 30.5545 19.968 29.768L29.768 19.968C30.5545 19.1805 30.9963 18.113 30.9963 17C30.9963 15.887 30.5545 14.8195 29.768 14.032ZM27.794 17.994L17.994 27.794C17.8638 27.9252 17.709 28.0294 17.5384 28.1005C17.3678 28.1715 17.1848 28.2081 17 28.2081C16.8152 28.2081 16.6322 28.1715 16.4616 28.1005C16.291 28.0294 16.1361 27.9252 16.006 27.794L6.206 17.994C6.07478 17.8639 5.97063 17.709 5.89955 17.5384C5.82847 17.3678 5.79188 17.1848 5.79188 17C5.79188 16.8152 5.82847 16.6322 5.89955 16.4616C5.97063 16.291 6.07478 16.1362 6.206 16.006L16.006 6.20601C16.1361 6.07479 16.291 5.97064 16.4616 5.89957C16.6322 5.82849 16.8152 5.7919 17 5.7919C17.1848 5.7919 17.3678 5.82849 17.5384 5.89957C17.709 5.97064 17.8638 6.07479 17.994 6.20601L27.794 16.006C27.9252 16.1362 28.0294 16.291 28.1004 16.4616C28.1715 16.6322 28.2081 16.8152 28.2081 17C28.2081 17.1848 28.1715 17.3678 28.1004 17.5384C28.0294 17.709 27.9252 17.8639 27.794 17.994ZM20.094 13.206C19.8304 12.9424 19.4728 12.7943 19.1 12.7943C18.7272 12.7943 18.3696 12.9424 18.106 13.206C17.8424 13.4696 17.6943 13.8272 17.6943 14.2C17.6943 14.5728 17.8424 14.9304 18.106 15.194L18.526 15.6H13.5C13.1287 15.6 12.7726 15.7475 12.51 16.0101C12.2475 16.2726 12.1 16.6287 12.1 17V19.8C12.1 20.1713 12.2475 20.5274 12.51 20.79C12.7726 21.0525 13.1287 21.2 13.5 21.2C13.8713 21.2 14.2274 21.0525 14.4899 20.79C14.7525 20.5274 14.9 20.1713 14.9 19.8V18.4H18.526L18.106 18.806C17.9748 18.9362 17.8706 19.091 17.7996 19.2616C17.7285 19.4322 17.6919 19.6152 17.6919 19.8C17.6919 19.9848 17.7285 20.1678 17.7996 20.3384C17.8706 20.509 17.9748 20.6639 18.106 20.794C18.2361 20.9252 18.391 21.0294 18.5616 21.1005C18.7322 21.1715 18.9152 21.2081 19.1 21.2081C19.2848 21.2081 19.4678 21.1715 19.6384 21.1005C19.809 21.0294 19.9639 20.9252 20.094 20.794L22.894 17.994C23.0252 17.8639 23.1294 17.709 23.2004 17.5384C23.2715 17.3678 23.3081 17.1848 23.3081 17C23.3081 16.8152 23.2715 16.6322 23.2004 16.4616C23.1294 16.291 23.0252 16.1362 22.894 16.006L20.094 13.206Z" fill="white"/>
</svg>
