<svg width="48" height="48" viewBox="0 0 48 48" fill="none" xmlns="http://www.w3.org/2000/svg">
<rect width="48" height="48" rx="24" fill="#F43F5E"/>
<g clip-path="url(#clip0_855_2039)">
<path d="M36.768 21.032L26.968 11.232C26.1668 10.4718 25.1045 10.048 24 10.048C22.8955 10.048 21.8332 10.4718 21.032 11.232L11.232 21.032C10.4455 21.8195 10.0037 22.887 10.0037 24C10.0037 25.113 10.4455 26.1805 11.232 26.968L21.032 36.768C21.8195 37.5545 22.887 37.9963 24 37.9963C25.113 37.9963 26.1805 37.5545 26.968 36.768L36.768 26.968C37.5545 26.1805 37.9963 25.113 37.9963 24C37.9963 22.887 37.5545 21.8195 36.768 21.032V21.032ZM34.794 24.994L24.994 34.794C24.8638 34.9252 24.709 35.0294 24.5384 35.1005C24.3678 35.1715 24.1848 35.2081 24 35.2081C23.8152 35.2081 23.6322 35.1715 23.4616 35.1005C23.291 35.0294 23.1361 34.9252 23.006 34.794L13.206 24.994C13.0748 24.8639 12.9706 24.709 12.8995 24.5384C12.8285 24.3678 12.7919 24.1848 12.7919 24C12.7919 23.8152 12.8285 23.6322 12.8995 23.4616C12.9706 23.291 13.0748 23.1362 13.206 23.006L23.006 13.206C23.1361 13.0748 23.291 12.9706 23.4616 12.8996C23.6322 12.8285 23.8152 12.7919 24 12.7919C24.1848 12.7919 24.3678 12.8285 24.5384 12.8996C24.709 12.9706 24.8638 13.0748 24.994 13.206L34.794 23.006C34.9252 23.1362 35.0294 23.291 35.1004 23.4616C35.1715 23.6322 35.2081 23.8152 35.2081 24C35.2081 24.1848 35.1715 24.3678 35.1004 24.5384C35.0294 24.709 34.9252 24.8639 34.794 24.994ZM27.094 20.206C26.8304 19.9424 26.4728 19.7943 26.1 19.7943C25.7272 19.7943 25.3696 19.9424 25.106 20.206C24.8424 20.4696 24.6943 20.8272 24.6943 21.2C24.6943 21.5728 24.8424 21.9304 25.106 22.194L25.526 22.6H20.5C20.1287 22.6 19.7726 22.7475 19.51 23.0101C19.2475 23.2726 19.1 23.6287 19.1 24V26.8C19.1 27.1713 19.2475 27.5274 19.51 27.79C19.7726 28.0525 20.1287 28.2 20.5 28.2C20.8713 28.2 21.2274 28.0525 21.4899 27.79C21.7525 27.5274 21.9 27.1713 21.9 26.8V25.4H25.526L25.106 25.806C24.9748 25.9362 24.8706 26.091 24.7996 26.2616C24.7285 26.4322 24.6919 26.6152 24.6919 26.8C24.6919 26.9848 24.7285 27.1678 24.7996 27.3384C24.8706 27.509 24.9748 27.6639 25.106 27.794C25.2361 27.9252 25.391 28.0294 25.5616 28.1005C25.7322 28.1715 25.9152 28.2081 26.1 28.2081C26.2848 28.2081 26.4678 28.1715 26.6384 28.1005C26.809 28.0294 26.9638 27.9252 27.094 27.794L29.894 24.994C30.0252 24.8639 30.1294 24.709 30.2004 24.5384C30.2715 24.3678 30.3081 24.1848 30.3081 24C30.3081 23.8152 30.2715 23.6322 30.2004 23.4616C30.1294 23.291 30.0252 23.1362 29.894 23.006L27.094 20.206Z" fill="white"/>
</g>
<defs>
<clipPath id="clip0_855_2039">
<rect width="33.6" height="33.6" fill="white" transform="translate(7.2 7.20001)"/>
</clipPath>
</defs>
</svg>
