<svg width="221" height="326" viewBox="0 0 221 326" fill="none" xmlns="http://www.w3.org/2000/svg">
<path d="M154.95 319.245C157.189 322.331 159.753 325.104 163.73 326H164.401C169.072 324.794 171.87 321.361 174.29 317.575C178.794 310.527 181.377 302.682 183.462 294.674C184.481 290.767 185.349 286.821 186.218 282.874C186.481 281.681 186.744 280.487 187.011 279.294C187.146 278.685 187.149 278.039 187.153 277.406C187.153 277.318 187.154 277.231 187.155 277.145C187.172 274.705 187.189 272.265 187.206 269.825C187.344 250.246 187.481 230.664 187.577 211.083C187.584 209.753 188.009 209.027 189.162 208.344C199.776 202.07 210.388 195.794 221 189.517V125.585C212.788 127.32 204.576 129.054 196.363 130.788C194.45 131.192 192.531 131.561 190.587 131.935C189.627 132.12 188.661 132.306 187.687 132.498C187.661 132.331 187.638 132.191 187.617 132.068C187.575 131.816 187.545 131.636 187.527 131.454C187.302 129.192 187.077 126.93 186.851 124.668C186.263 118.763 185.675 112.859 185.1 106.953C184.516 100.936 183.934 94.919 183.353 88.9016C182.19 76.8687 181.026 64.8358 179.842 52.8058C179.725 51.6194 180.057 50.9063 181.022 50.1731C193.964 40.342 206.873 30.4676 219.764 20.5732C220.274 20.1833 220.884 19.4868 220.884 18.9303C220.896 15.3015 220.857 11.6727 220.818 8.04386C220.795 5.90398 220.772 3.7641 220.76 1.62422C220.75 0.0745947 220.156 -0.172047 218.685 0.171205C201.226 4.24028 183.75 8.25604 166.27 12.2451C165.218 12.4851 164.029 12.6417 163 12.4117C145.185 8.40599 127.381 4.33694 109.58 0.264515L109.499 0.246043C107.556 -0.199856 107.434 -0.227707 107.385 1.80082C107.316 4.57347 107.291 7.34698 107.266 10.1205C107.243 12.7274 107.22 15.3343 107.16 17.9405C107.13 19.2435 107.556 20.0467 108.594 20.8332C113.172 24.2961 117.738 27.7737 122.304 31.2514C129.826 36.9807 137.349 42.71 144.921 48.3735C147.156 50.0465 147.987 51.8327 147.742 54.5354C147.209 60.3888 146.724 66.2456 146.238 72.1023C145.78 77.6296 145.321 83.1569 144.823 88.681C144.049 97.2565 143.207 105.826 142.365 114.396C142.117 116.919 141.869 119.443 141.623 121.967C141.392 124.338 141.135 126.704 140.866 129.183C140.742 130.328 140.615 131.496 140.487 132.701C101.566 124.447 62.7878 116.221 23.9688 107.987L0.433883 102.994C0.41492 103.222 0.395958 103.416 0.379071 103.59C0.348201 103.906 0.324258 104.152 0.319926 104.397C0.290509 106.362 0.264543 108.326 0.238576 110.29C0.175774 115.037 0.112971 119.784 0.00155596 124.529C-0.0285871 125.746 0.37689 126.369 1.42242 126.986C22.1897 139.263 42.9521 151.548 63.7147 163.833C88.8388 178.698 113.963 193.564 139.096 208.417C140.239 209.093 140.544 209.827 140.551 211.06C140.657 231.469 140.8 251.878 140.943 272.287L140.976 276.975C140.978 277.146 140.975 277.32 140.973 277.494C140.964 278.047 140.956 278.605 141.083 279.127C141.541 281.011 141.988 282.898 142.434 284.786C143.684 290.068 144.934 295.353 146.435 300.562C148.339 307.171 150.852 313.6 154.95 319.245Z" fill="url(#paint0_linear_1054_41)"/>
<path d="M155.355 318.951L154.95 319.245L155.355 318.951C151.305 313.372 148.811 307.006 146.916 300.424C145.418 295.228 144.171 289.955 142.921 284.671C142.475 282.784 142.028 280.895 141.569 279.009L141.569 279.009C141.46 278.559 141.464 278.068 141.473 277.501L141.473 277.497C141.475 277.326 141.478 277.147 141.476 276.97L141.443 272.284C141.3 251.874 141.156 231.466 141.051 211.057C141.047 210.405 140.966 209.822 140.693 209.298C140.417 208.769 139.974 208.356 139.351 207.987L139.351 207.986C114.245 193.15 89.1493 178.301 64.0532 163.452L63.9693 163.403C43.2067 151.118 22.4442 138.833 1.67688 126.555L1.67639 126.555C1.18844 126.267 0.906129 126.01 0.73866 125.727C0.574069 125.45 0.487751 125.093 0.501403 124.542L0.501418 124.541C0.612903 119.793 0.675735 115.044 0.738532 110.297L0.73855 110.295C0.764508 108.332 0.790461 106.369 0.819859 104.406C0.823803 104.184 0.845408 103.959 0.876711 103.638L0.379094 103.59L0.876713 103.638L0.876817 103.637C0.878004 103.625 0.879202 103.613 0.880411 103.6L23.865 108.476L25.0476 108.727C63.4717 116.878 101.857 125.02 140.383 133.19L140.926 133.305L140.984 132.754C141.112 131.552 141.238 130.386 141.362 129.243L141.363 129.237C141.632 126.758 141.889 124.389 142.121 122.015C142.364 119.517 142.61 117.02 142.855 114.522L142.863 114.445C143.705 105.875 144.547 97.3037 145.321 88.7259L144.823 88.681L145.321 88.7258C145.819 83.1997 146.278 77.6707 146.736 72.1436C147.222 66.2866 147.708 60.4317 148.24 54.5807L148.24 54.5805C148.368 53.1673 148.218 51.9526 147.716 50.8595C147.214 49.7682 146.382 48.8428 145.22 47.9732L145.22 47.9731C137.652 42.3124 130.133 36.5857 122.612 30.8575L122.607 30.8537L122.601 30.8489C118.037 27.3729 113.472 23.8964 108.896 20.4345C108.415 20.0704 108.11 19.7281 107.923 19.3558C107.737 18.9855 107.646 18.5452 107.66 17.952L107.16 17.9405L107.66 17.952C107.72 15.3417 107.743 12.7312 107.766 10.1249C107.791 7.35074 107.816 4.58125 107.885 1.81328V1.81304C107.897 1.29905 107.914 0.958625 107.955 0.726403C107.98 0.588119 108.006 0.529465 108.018 0.50882C108.041 0.503081 108.117 0.490889 108.297 0.512169C108.549 0.541854 108.89 0.619258 109.387 0.733374L109.468 0.751846L109.468 0.751923C127.269 4.82433 145.075 8.89358 162.89 12.8996L162.891 12.8997C164.032 13.1547 165.311 12.9768 166.382 12.7326L166.27 12.2451L166.382 12.7326C183.862 8.7434 201.338 4.72746 218.799 0.658155L218.799 0.658126C219.152 0.575779 219.423 0.536249 219.63 0.53551C219.837 0.534775 219.944 0.572637 220.002 0.609558C220.097 0.670523 220.255 0.866201 220.26 1.62746C220.272 3.76569 220.295 5.90372 220.318 8.0403L220.318 8.04924C220.357 11.6786 220.396 15.3039 220.384 18.9285V18.9303C220.384 19.0459 220.309 19.2513 220.113 19.517C219.928 19.7674 219.682 20.0062 219.46 20.1762L219.46 20.1766C206.569 30.0707 193.661 39.9445 180.72 49.775C180.198 50.1709 179.806 50.5932 179.571 51.1137C179.335 51.6363 179.281 52.206 179.345 52.8548C180.529 64.8842 181.692 76.9167 182.855 88.9497C183.437 94.9671 184.018 100.985 184.603 107.002L185.1 106.953L184.603 107.002C185.177 112.904 185.765 118.805 186.352 124.705L186.354 124.718C186.579 126.98 186.804 129.242 187.029 131.504C187.049 131.705 187.082 131.903 187.124 132.151L187.124 132.154C187.145 132.276 187.168 132.414 187.194 132.576L187.275 133.088L187.784 132.988C188.749 132.798 189.707 132.614 190.66 132.43L190.681 132.426C192.624 132.052 194.548 131.682 196.467 131.277C204.478 129.586 212.489 127.894 220.5 126.201V189.232C209.97 195.461 199.439 201.688 188.908 207.913L188.907 207.913C188.289 208.28 187.817 208.686 187.507 209.22C187.197 209.754 187.08 210.364 187.077 211.08C186.982 230.661 186.844 250.242 186.706 269.821L186.655 277.14C186.654 277.228 186.653 277.316 186.653 277.403C186.649 278.047 186.644 278.637 186.523 279.185C186.255 280.379 185.992 281.573 185.73 282.767C184.861 286.715 183.994 290.652 182.978 294.548L183.462 294.674L182.978 294.548C180.898 302.54 178.33 310.324 173.868 317.306C171.473 321.055 168.777 324.33 164.336 325.5H163.787C160.026 324.633 157.568 322.001 155.355 318.951ZM108.024 0.499305C108.024 0.499344 108.024 0.499851 108.023 0.500708C108.024 0.499696 108.024 0.499266 108.024 0.499305Z" stroke="#F59E0B"/>
<defs>
<linearGradient id="paint0_linear_1054_41" x1="221" y1="0" x2="-10" y2="326" gradientUnits="userSpaceOnUse">
<stop stop-color="#F4B832"/>
<stop offset="0.614196" stop-color="#F4B832" stop-opacity="0"/>
</linearGradient>
</defs>
</svg>
