<svg width="34" height="34" viewBox="0 0 34 34" fill="none" xmlns="http://www.w3.org/2000/svg">
<path d="M27.374 18.4C27.066 18.4 26.744 18.302 26.436 18.232C25.8128 18.0926 25.2 17.9102 24.602 17.686C23.9526 17.4497 23.2386 17.462 22.5977 17.7205C21.9567 17.9789 21.4339 18.4653 21.13 19.086L20.822 19.73C19.4624 18.9589 18.2063 18.018 17.084 16.93C15.996 15.8077 15.0551 14.5516 14.284 13.192L14.928 12.898C15.5487 12.5941 16.0351 12.0713 16.2936 11.4304C16.552 10.7894 16.5643 10.0755 16.328 9.426C16.1057 8.82264 15.9233 8.20531 15.782 7.578C15.712 7.27 15.656 6.948 15.614 6.64C15.444 5.65387 14.9275 4.76084 14.1575 4.12173C13.3875 3.48263 12.4146 3.13945 11.414 3.154H7.20003C6.60817 3.15322 6.02284 3.27755 5.48239 3.51882C4.94195 3.76009 4.4586 4.11286 4.06403 4.554C3.66127 5.00712 3.36139 5.54205 3.18497 6.12205C3.00855 6.70205 2.95979 7.31337 3.04203 7.914C3.80305 13.741 6.46532 19.1541 10.616 23.314C14.7759 27.4647 20.189 30.127 26.016 30.888C26.1978 30.9019 26.3803 30.9019 26.562 30.888C27.5944 30.8895 28.5912 30.5107 29.362 29.824C29.8032 29.4294 30.1559 28.9461 30.3972 28.4056C30.6385 27.8652 30.7628 27.2799 30.762 26.688V22.488C30.7545 21.5207 30.4132 20.5856 29.7959 19.8407C29.1786 19.0959 28.3232 18.587 27.374 18.4ZM28.06 26.8C28.0596 26.9954 28.0182 27.1885 27.9387 27.3669C27.8591 27.5453 27.7431 27.7051 27.598 27.836C27.4446 27.9758 27.262 28.0797 27.0634 28.1403C26.8649 28.2008 26.6554 28.2164 26.45 28.186C21.2256 27.5037 16.3704 25.1228 12.632 21.41C8.89049 17.6685 6.48887 12.7963 5.80003 7.55C5.76961 7.34467 5.78524 7.13514 5.84577 6.93659C5.90631 6.73804 6.01023 6.55544 6.15003 6.402C6.2825 6.25521 6.44456 6.13815 6.62554 6.05852C6.80651 5.97889 7.00231 5.93849 7.20003 5.94H11.4C11.7237 5.93209 12.04 6.03658 12.2953 6.23568C12.5505 6.43478 12.7289 6.71619 12.8 7.032C12.8 7.41 12.926 7.802 13.01 8.18C13.1718 8.91341 13.3871 9.634 13.654 10.336L11.694 11.26C11.3571 11.4146 11.0953 11.6966 10.966 12.044C10.826 12.3848 10.826 12.7672 10.966 13.108C12.9809 17.4239 16.4502 20.8931 20.766 22.908C21.1069 23.048 21.4892 23.048 21.83 22.908C22.1774 22.7787 22.4594 22.5169 22.614 22.18L23.496 20.22C24.2183 20.4834 24.9573 20.6985 25.708 20.864C26.072 20.948 26.464 21.018 26.842 21.074C27.1578 21.1451 27.4392 21.3235 27.6383 21.5788C27.8375 21.834 27.9419 22.1504 27.934 22.474L28.06 26.8ZM19.8 3H18.82C18.4487 3.03156 18.1052 3.20933 17.8649 3.4942C17.6247 3.77906 17.5075 4.1477 17.539 4.519C17.5706 4.8903 17.7484 5.23386 18.0332 5.4741C18.3181 5.71433 18.6867 5.83156 19.058 5.8H19.8C22.0278 5.8 24.1644 6.685 25.7397 8.2603C27.315 9.83561 28.2 11.9722 28.2 14.2V14.942C28.169 15.3113 28.2857 15.6779 28.5245 15.9613C28.7633 16.2448 29.1048 16.4219 29.474 16.454H29.586C29.9365 16.4554 30.2748 16.3253 30.534 16.0895C30.7932 15.8536 30.9545 15.5291 30.986 15.18V14.2C30.986 11.232 29.808 8.38536 27.7106 6.28535C25.6132 4.18534 22.768 3.00371 19.8 3ZM22.6 14.2C22.6 14.5713 22.7475 14.9274 23.0101 15.1899C23.2726 15.4525 23.6287 15.6 24 15.6C24.3713 15.6 24.7274 15.4525 24.99 15.1899C25.2525 14.9274 25.4 14.5713 25.4 14.2C25.4 12.7148 24.81 11.2904 23.7598 10.2402C22.7096 9.19 21.2852 8.6 19.8 8.6C19.4287 8.6 19.0726 8.7475 18.8101 9.01005C18.5475 9.2726 18.4 9.6287 18.4 10C18.4 10.3713 18.5475 10.7274 18.8101 10.9899C19.0726 11.2525 19.4287 11.4 19.8 11.4C20.5426 11.4 21.2548 11.695 21.7799 12.2201C22.305 12.7452 22.6 13.4574 22.6 14.2Z" fill="white"/>
</svg>
